<svg width="256" height="256" viewBox="0 0 256 256" fill="none" xmlns="http://www.w3.org/2000/svg">
<path d="M188.327 128.593L151.649 107.43L136.903 98.9168L81.0776 66.6812L65.4173 75.7246C56.7053 80.737 51.3481 90.0325 51.3481 100.07C51.3481 111.262 57.3153 121.592 67.0085 127.188L103.686 148.364L118.445 156.877L174.271 189.113L189.931 180.07C198.63 175.044 204 165.762 204 155.71C203.974 144.532 198.007 134.189 188.327 128.593Z" fill="#3535DB"/>
<path d="M189.997 75.7645C191.098 76.4142 191.867 77.3557 192.305 78.4032C193.551 81.4266 191.748 84.8477 188.579 85.6566L125.248 73.3909L113.683 48.062L125.248 73.4041L188.579 85.6566L136.89 98.9036L81.0645 66.6812L113.605 47.8914C122.304 42.8658 133.031 42.8658 141.73 47.8914L189.918 75.7247L189.997 75.7645Z" fill="url(#paint0_linear_326_3184)"/>
<path d="M118.432 156.891L66.7565 170.124L130.087 182.39L141.73 207.903L174.257 189.113L118.432 156.891Z" fill="url(#paint1_linear_326_3184)"/>
<path d="M65.3243 180.03C64.2237 179.38 63.4546 178.439 63.017 177.391C61.7838 174.368 63.5872 170.946 66.7432 170.124L130.074 182.39L141.717 207.89C133.018 212.915 122.29 212.915 113.592 207.89L65.4039 180.07L65.3243 180.03Z" fill="url(#paint2_linear_326_3184)"/>
<defs>
<linearGradient id="paint0_linear_326_3184" x1="168.53" y1="79.4067" x2="81.0616" y2="89.2492" gradientUnits="userSpaceOnUse">
<stop stop-color="#4747EF"/>
<stop offset="1" stop-color="#000099"/>
</linearGradient>
<linearGradient id="paint1_linear_326_3184" x1="96.1037" y1="184.146" x2="157.016" y2="179.872" gradientUnits="userSpaceOnUse">
<stop stop-color="#4747EF"/>
<stop offset="1" stop-color="#000099"/>
</linearGradient>
<linearGradient id="paint2_linear_326_3184" x1="96.1037" y1="184.146" x2="157.016" y2="179.872" gradientUnits="userSpaceOnUse">
<stop stop-color="#4747EF"/>
<stop offset="1" stop-color="#000099"/>
</linearGradient>
</defs>
</svg>
